<svg xmlns="http://www.w3.org/2000/svg" xmlns:xlink="http://www.w3.org/1999/xlink" width="220" height="220" viewBox="0 0 220 220" fill="none"><g filter="url(#filter_4C83shLJth-eIU-_3xDtJ)"><path     fill="url(#linear_fill_4C83shLJth-eIU-_3xDtJ_0)"  d="M80.2057 68.5807L80.2057 142.396C80.2057 144.62 82.0312 146.481 84.1964 145.973C88.9549 144.857 92.5097 141.732 94.4461 136.744C96.3553 131.765 96.9993 126.024 97.9905 120.089C98.3056 118.202 99.9564 116.831 101.87 116.831L114.747 116.831C117.053 116.831 118.881 118.757 118.789 121.06C118.357 131.898 118.621 142.623 116.517 152.586C113.373 167.539 104.165 176.909 91.2715 178.201C79.476 179.384 67.5526 178.898 55.6895 178.916C51.6348 178.916 48.9191 176.395 49.0018 171.014C49.4005 152.971 48.6483 134.718 50.6794 116.923C52.9475 97.0301 61.0107 80.5331 73.6292 66.0027C75.9587 63.3202 80.2057 65.0279 80.2057 68.5807Z"></path></g><g filter="url(#filter_yWXBQGgDsgctWURhRxJ8d)"><path     fill="url(#linear_fill_yWXBQGgDsgctWURhRxJ8d_0)"  d="M137.605 75.3208C129.128 76.5132 125.521 82.8643 123.027 99.1842C122.725 101.166 121.033 102.673 119.028 102.673L105.367 102.673C103.149 102.673 101.356 100.88 101.315 98.663C101.052 84.2783 99.4419 69.9918 107.219 57.2869C113.061 47.7468 120.764 41.7299 130.706 41.2671C141.595 40.757 152.499 41.1538 163.395 41.0499C167.558 41.0499 170.602 43.2507 170.602 48.1624C170.602 71.6065 172.967 95.3151 166.171 118.136C162.289 131.094 156.59 142.656 148.096 153.413C145.857 156.248 141.508 154.597 141.508 150.984L141.508 79.0423C141.508 76.8601 139.766 75.0168 137.605 75.3208Z"></path></g><defs><linearGradient id="linear_fill_4C83shLJth-eIU-_3xDtJ_0" x1="49" y1="119" x2="119" y2="119" gradientUnits="userSpaceOnUse"><stop offset="0" stop-color="#EB5678" stop-opacity="0.51" /><stop offset="1" stop-color="#CF239B" stop-opacity="0.59" /></linearGradient><filter id="filter_4C83shLJth-eIU-_3xDtJ" x="44.919097900390625" y="61.32017517089844" width="77.96217346191406" height="123.78939819335938" filterUnits="userSpaceOnUse" color-interpolation-filters="sRGB"><feFlood flood-opacity="0" result="feFloodId_4C83shLJth-eIU-_3xDtJ"/><feColorMatrix in="SourceAlpha" type="matrix" values="0 0 0 0 0 0 0 0 0 0 0 0 0 0 0 0 0 0 127 0" result="hardAlpha_4C83shLJth-eIU-_3xDtJ"/><feOffset dx="0" dy="2"/><feGaussianBlur stdDeviation="2"/><feComposite in2="hardAlpha_4C83shLJth-eIU-_3xDtJ" operator="out"/><feColorMatrix type="matrix" values="0 0 0 0 0 0 0 0 0 0 0 0 0 0 0 0 0 0 0.25 0"/><feBlend mode="normal" in2="feFloodId_4C83shLJth-eIU-_3xDtJ" result="dropShadow_1_4C83shLJth-eIU-_3xDtJ"/><feBlend mode="normal" in="SourceGraphic" in2="dropShadow_1_4C83shLJth-eIU-_3xDtJ" result="shape_4C83shLJth-eIU-_3xDtJ"/></filter><linearGradient id="linear_fill_yWXBQGgDsgctWURhRxJ8d_0" x1="101" y1="101" x2="171" y2="101" gradientUnits="userSpaceOnUse"><stop offset="0" stop-color="#A37FEB" stop-opacity="0.64" /><stop offset="1" stop-color="#36B0E9" stop-opacity="0.66" /></linearGradient><filter id="filter_yWXBQGgDsgctWURhRxJ8d" x="96.42363739013672" y="38.9384765625" width="79.1490478515625" height="123.30984497070312" filterUnits="userSpaceOnUse" color-interpolation-filters="sRGB"><feFlood flood-opacity="0" result="feFloodId_yWXBQGgDsgctWURhRxJ8d"/><feColorMatrix in="SourceAlpha" type="matrix" values="0 0 0 0 0 0 0 0 0 0 0 0 0 0 0 0 0 0 127 0" result="hardAlpha_yWXBQGgDsgctWURhRxJ8d"/><feOffset dx="0" dy="2"/><feGaussianBlur stdDeviation="2"/><feComposite in2="hardAlpha_yWXBQGgDsgctWURhRxJ8d" operator="out"/><feColorMatrix type="matrix" values="0 0 0 0 0 0 0 0 0 0 0 0 0 0 0 0 0 0 0.25 0"/><feBlend mode="normal" in2="feFloodId_yWXBQGgDsgctWURhRxJ8d" result="dropShadow_1_yWXBQGgDsgctWURhRxJ8d"/><feBlend mode="normal" in="SourceGraphic" in2="dropShadow_1_yWXBQGgDsgctWURhRxJ8d" result="shape_yWXBQGgDsgctWURhRxJ8d"/></filter></defs></svg>