<svg xmlns="http://www.w3.org/2000/svg" xmlns:xlink="http://www.w3.org/1999/xlink" width="228" height="228" viewBox="0 0 228 228" fill="none"><g filter="url(#filter_4C83shLJth-eIU-_3xDtJ)"><path     fill="url(#linear_fill_4C83shLJth-eIU-_3xDtJ_0)"  d="M84.2057 72.5807L84.2057 146.396C84.2057 148.62 86.0312 150.481 88.1964 149.973C92.9549 148.857 96.5097 145.732 98.4461 140.744C100.355 135.765 100.999 130.024 101.991 124.089C102.306 122.202 103.956 120.831 105.87 120.831L118.747 120.831C121.053 120.831 122.881 122.757 122.789 125.06C122.357 135.898 122.621 146.623 120.517 156.586C117.373 171.539 108.165 180.909 95.2715 182.201C83.476 183.384 71.5526 182.898 59.6895 182.916C55.6348 182.916 52.9191 180.395 53.0018 175.014C53.4005 156.971 52.6483 138.718 54.6794 120.923C56.9475 101.03 65.0107 84.5331 77.6292 70.0027C79.9587 67.3202 84.2057 69.0279 84.2057 72.5807Z"></path></g><g filter="url(#filter_yWXBQGgDsgctWURhRxJ8d)"><path     fill="url(#linear_fill_yWXBQGgDsgctWURhRxJ8d_0)"  d="M141.605 79.3208C133.128 80.5132 129.521 86.8643 127.027 103.184C126.725 105.166 125.033 106.673 123.028 106.673L109.367 106.673C107.149 106.673 105.356 104.88 105.315 102.663C105.052 88.2783 103.442 73.9918 111.219 61.2869C117.061 51.7468 124.764 45.7299 134.706 45.2671C145.595 44.757 156.499 45.1538 167.395 45.0499C171.558 45.0499 174.602 47.2507 174.602 52.1624C174.602 75.6065 176.967 99.3151 170.171 122.136C166.289 135.094 160.59 146.656 152.096 157.413C149.857 160.248 145.508 158.597 145.508 154.984L145.508 83.0423C145.508 80.8601 143.766 79.0168 141.605 79.3208Z"></path></g><path  transform="translate(4, 4)" fill="rgba(232, 186, 223, 1)"  d="M110 -4Q131.745 -4 151.963 4.00413Q173.915 12.6949 190.61 29.3898Q207.305 46.0847 215.996 68.0372Q224 88.2552 224 110Q224 131.745 215.996 151.963Q207.305 173.915 190.61 190.61Q173.915 207.305 151.963 215.996Q131.745 224 110 224Q88.2552 224 68.0372 215.996Q46.0847 207.305 29.3898 190.61Q12.6949 173.915 4.00413 151.963Q-4 131.745 -4 110Q-4 88.2552 4.00413 68.0372Q12.6949 46.0847 29.3898 29.3898Q46.0847 12.6949 68.0372 4.00413Q88.2552 -4 110 -4ZM110 4Q89.7812 4 70.982 11.4424Q50.57 19.5233 35.0467 35.0467Q19.5233 50.57 11.4424 70.982Q4 89.7812 4 110Q4 130.219 11.4424 149.018Q19.5234 169.43 35.0467 184.953Q50.5699 200.477 70.982 208.558Q89.7811 216 110 216Q130.219 216 149.018 208.558Q169.43 200.477 184.953 184.953Q200.477 169.43 208.558 149.018Q216 130.219 216 110Q216 89.7811 208.558 70.982Q200.477 50.57 184.953 35.0467Q169.43 19.5234 149.018 11.4424Q130.219 4 110 4Z"></path><defs><linearGradient id="linear_fill_4C83shLJth-eIU-_3xDtJ_0" x1="53" y1="123" x2="123" y2="123" gradientUnits="userSpaceOnUse"><stop offset="0" stop-color="#EB5678" stop-opacity="0.51" /><stop offset="1" stop-color="#CF239B" stop-opacity="0.59" /></linearGradient><filter id="filter_4C83shLJth-eIU-_3xDtJ" x="48.919097900390625" y="65.32017517089844" width="77.96217346191406" height="123.78939819335938" filterUnits="userSpaceOnUse" color-interpolation-filters="sRGB"><feFlood flood-opacity="0" result="feFloodId_4C83shLJth-eIU-_3xDtJ"/><feColorMatrix in="SourceAlpha" type="matrix" values="0 0 0 0 0 0 0 0 0 0 0 0 0 0 0 0 0 0 127 0" result="hardAlpha_4C83shLJth-eIU-_3xDtJ"/><feOffset dx="0" dy="2"/><feGaussianBlur stdDeviation="2"/><feComposite in2="hardAlpha_4C83shLJth-eIU-_3xDtJ" operator="out"/><feColorMatrix type="matrix" values="0 0 0 0 0 0 0 0 0 0 0 0 0 0 0 0 0 0 0.25 0"/><feBlend mode="normal" in2="feFloodId_4C83shLJth-eIU-_3xDtJ" result="dropShadow_1_4C83shLJth-eIU-_3xDtJ"/><feBlend mode="normal" in="SourceGraphic" in2="dropShadow_1_4C83shLJth-eIU-_3xDtJ" result="shape_4C83shLJth-eIU-_3xDtJ"/></filter><linearGradient id="linear_fill_yWXBQGgDsgctWURhRxJ8d_0" x1="105" y1="105" x2="175" y2="105" gradientUnits="userSpaceOnUse"><stop offset="0" stop-color="#A37FEB" stop-opacity="0.64" /><stop offset="1" stop-color="#36B0E9" stop-opacity="0.66" /></linearGradient><filter id="filter_yWXBQGgDsgctWURhRxJ8d" x="100.42363739013672" y="42.9384765625" width="79.1490478515625" height="123.30984497070312" filterUnits="userSpaceOnUse" color-interpolation-filters="sRGB"><feFlood flood-opacity="0" result="feFloodId_yWXBQGgDsgctWURhRxJ8d"/><feColorMatrix in="SourceAlpha" type="matrix" values="0 0 0 0 0 0 0 0 0 0 0 0 0 0 0 0 0 0 127 0" result="hardAlpha_yWXBQGgDsgctWURhRxJ8d"/><feOffset dx="0" dy="2"/><feGaussianBlur stdDeviation="2"/><feComposite in2="hardAlpha_yWXBQGgDsgctWURhRxJ8d" operator="out"/><feColorMatrix type="matrix" values="0 0 0 0 0 0 0 0 0 0 0 0 0 0 0 0 0 0 0.25 0"/><feBlend mode="normal" in2="feFloodId_yWXBQGgDsgctWURhRxJ8d" result="dropShadow_1_yWXBQGgDsgctWURhRxJ8d"/><feBlend mode="normal" in="SourceGraphic" in2="dropShadow_1_yWXBQGgDsgctWURhRxJ8d" result="shape_yWXBQGgDsgctWURhRxJ8d"/></filter></defs></svg>