<svg xmlns="http://www.w3.org/2000/svg" xmlns:xlink="http://www.w3.org/1999/xlink" width="220" height="220" viewBox="0 0 220 220" fill="none"><path     fill="#243545"  d="M110 0C110 0 110 0 110 0Q112.7 0 115.397 0.1325Q118.095 0.265 120.782 0.52968Q123.469 0.79436 126.14 1.19058Q128.811 1.58681 131.46 2.11362Q134.108 2.64043 136.728 3.29656Q139.347 3.95269 141.931 4.73656Q144.515 5.52043 147.058 6.43015Q149.6 7.33987 152.095 8.37325Q154.59 9.40663 157.031 10.5612Q159.472 11.7157 161.854 12.9887Q164.235 14.2616 166.551 15.6498Q168.867 17.0381 171.113 18.5383Q173.358 20.0386 175.527 21.6472Q177.696 23.2558 179.783 24.9688Q181.871 26.6819 183.871 28.4954Q185.872 30.3088 187.782 32.2183Q189.691 34.1277 191.505 36.1285Q193.318 38.1293 195.031 40.2167Q196.744 42.3041 198.353 44.4731Q199.961 46.642 201.462 48.8873Q202.962 51.1325 204.35 53.4487Q205.738 55.7649 207.011 58.1464Q208.284 60.5278 209.439 62.9689Q210.593 65.41 211.627 67.9048Q212.66 70.3996 213.57 72.9421Q214.48 75.4846 215.263 78.0687Q216.047 80.6528 216.703 83.2722Q217.36 85.8916 217.886 88.5401Q218.413 91.1885 218.809 93.8596Q219.206 96.5308 219.47 99.2181Q219.735 101.905 219.867 104.603Q220 107.3 220 110C220 110 220 110 220 110L220 110C220 110 220 110 220 110Q220 112.7 219.867 115.397Q219.735 118.095 219.47 120.782Q219.206 123.469 218.809 126.14Q218.413 128.811 217.886 131.46Q217.36 134.108 216.703 136.728Q216.047 139.347 215.263 141.931Q214.48 144.515 213.57 147.058Q212.66 149.6 211.627 152.095Q210.593 154.59 209.439 157.031Q208.284 159.472 207.011 161.854Q205.738 164.235 204.35 166.551Q202.962 168.867 201.462 171.113Q199.961 173.358 198.353 175.527Q196.744 177.696 195.031 179.783Q193.318 181.871 191.505 183.871Q189.691 185.872 187.782 187.782Q185.872 189.691 183.871 191.505Q181.871 193.318 179.783 195.031Q177.696 196.744 175.527 198.353Q173.358 199.961 171.113 201.462Q168.867 202.962 166.551 204.35Q164.235 205.738 161.854 207.011Q159.472 208.284 157.031 209.439Q154.59 210.593 152.095 211.627Q149.6 212.66 147.058 213.57Q144.515 214.48 141.931 215.263Q139.347 216.047 136.728 216.703Q134.108 217.36 131.46 217.886Q128.811 218.413 126.14 218.809Q123.469 219.206 120.782 219.47Q118.095 219.735 115.397 219.867Q112.7 220 110 220C110 220 110 220 110 220L110 220C110 220 110 220 110 220Q107.3 220 104.603 219.868Q101.905 219.735 99.2181 219.47Q96.5308 219.206 93.8596 218.809Q91.1885 218.413 88.5401 217.886Q85.8916 217.36 83.2722 216.703Q80.6528 216.047 78.0687 215.263Q75.4846 214.48 72.9421 213.57Q70.3996 212.66 67.9048 211.627Q65.41 210.593 62.9689 209.439Q60.5278 208.284 58.1464 207.011Q55.7649 205.738 53.4487 204.35Q51.1325 202.962 48.8873 201.462Q46.642 199.961 44.4731 198.353Q42.3041 196.744 40.2167 195.031Q38.1293 193.318 36.1285 191.505Q34.1277 189.691 32.2183 187.782Q30.3088 185.872 28.4954 183.871Q26.6819 181.871 24.9688 179.783Q23.2558 177.696 21.6472 175.527Q20.0386 173.358 18.5383 171.113Q17.0381 168.867 15.6498 166.551Q14.2616 164.235 12.9887 161.854Q11.7157 159.472 10.5612 157.031Q9.40663 154.59 8.37325 152.095Q7.33987 149.6 6.43015 147.058Q5.52043 144.515 4.73656 141.931Q3.95269 139.347 3.29656 136.728Q2.64043 134.108 2.11362 131.46Q1.58681 128.811 1.19058 126.14Q0.79436 123.469 0.52968 120.782Q0.265 118.095 0.1325 115.397Q0 112.7 0 110C0 110 0 110 0 110L0 110C0 110 0 110 0 110Q0 107.3 0.1325 104.603Q0.265 101.905 0.52968 99.2181Q0.79436 96.5308 1.19058 93.8596Q1.58681 91.1885 2.11362 88.5401Q2.64043 85.8916 3.29656 83.2722Q3.95269 80.6528 4.73656 78.0687Q5.52043 75.4846 6.43015 72.9421Q7.33987 70.3996 8.37325 67.9048Q9.40663 65.41 10.5612 62.9689Q11.7157 60.5278 12.9887 58.1464Q14.2616 55.7649 15.6498 53.4487Q17.0381 51.1325 18.5383 48.8873Q20.0386 46.642 21.6472 44.4731Q23.2558 42.3041 24.9688 40.2167Q26.6819 38.1293 28.4954 36.1285Q30.3088 34.1277 32.2183 32.2183Q34.1277 30.3088 36.1285 28.4954Q38.1293 26.6819 40.2167 24.9688Q42.3041 23.2558 44.4731 21.6472Q46.642 20.0386 48.8873 18.5383Q51.1325 17.0381 53.4487 15.6498Q55.7649 14.2616 58.1464 12.9887Q60.5278 11.7157 62.9689 10.5612Q65.41 9.40663 67.9048 8.37325Q70.3996 7.33987 72.9421 6.43015Q75.4846 5.52043 78.0687 4.73656Q80.6528 3.95269 83.2722 3.29656Q85.8916 2.64043 88.5401 2.11362Q91.1885 1.58681 93.8596 1.19058Q96.5308 0.79436 99.2181 0.52968Q101.905 0.265 104.603 0.1325Q107.3 0 110 0C110 0 110 0 110 0Z"></path><g filter="url(#filter_4C83shLJth-eIU-_3xDtJ)"><path     fill="#FFFFFF"  d="M80.2057 68.5807L80.2057 142.396C80.2057 144.62 82.0312 146.481 84.1964 145.973C88.9549 144.857 92.5097 141.732 94.4461 136.744C96.3553 131.765 96.9993 126.024 97.9905 120.089C98.3056 118.202 99.9564 116.831 101.87 116.831L114.747 116.831C117.053 116.831 118.881 118.757 118.789 121.06C118.357 131.898 118.621 142.623 116.517 152.586C113.373 167.539 104.165 176.909 91.2715 178.201C79.476 179.384 67.5526 178.898 55.6895 178.916C51.6348 178.916 48.9191 176.395 49.0018 171.014C49.4005 152.971 48.6483 134.718 50.6794 116.923C52.9475 97.0301 61.0107 80.5331 73.6292 66.0027C75.9587 63.3202 80.2057 65.0279 80.2057 68.5807Z"></path></g><g filter="url(#filter_yWXBQGgDsgctWURhRxJ8d)"><path     fill="#FFFFFF"  d="M137.605 75.3208C129.128 76.5132 125.521 82.8643 123.027 99.1842C122.725 101.166 121.033 102.673 119.028 102.673L105.367 102.673C103.149 102.673 101.356 100.88 101.315 98.663C101.052 84.2783 99.4419 69.9918 107.219 57.2869C113.061 47.7468 120.764 41.7299 130.706 41.2671C141.595 40.757 152.499 41.1538 163.395 41.0499C167.558 41.0499 170.602 43.2507 170.602 48.1624C170.602 71.6065 172.967 95.3151 166.171 118.136C162.289 131.094 156.59 142.656 148.096 153.413C145.857 156.248 141.508 154.597 141.508 150.984L141.508 79.0423C141.508 76.8601 139.766 75.0168 137.605 75.3208Z"></path></g><defs><filter id="filter_4C83shLJth-eIU-_3xDtJ" x="44.919097900390625" y="61.32017517089844" width="77.96217346191406" height="123.78939819335938" filterUnits="userSpaceOnUse" color-interpolation-filters="sRGB"><feFlood flood-opacity="0" result="feFloodId_4C83shLJth-eIU-_3xDtJ"/><feColorMatrix in="SourceAlpha" type="matrix" values="0 0 0 0 0 0 0 0 0 0 0 0 0 0 0 0 0 0 127 0" result="hardAlpha_4C83shLJth-eIU-_3xDtJ"/><feOffset dx="0" dy="2"/><feGaussianBlur stdDeviation="2"/><feComposite in2="hardAlpha_4C83shLJth-eIU-_3xDtJ" operator="out"/><feColorMatrix type="matrix" values="0 0 0 0 1 0 0 0 0 1 0 0 0 0 1 0 0 0 0.3 0"/><feBlend mode="normal" in2="feFloodId_4C83shLJth-eIU-_3xDtJ" result="dropShadow_1_4C83shLJth-eIU-_3xDtJ"/><feBlend mode="normal" in="SourceGraphic" in2="dropShadow_1_4C83shLJth-eIU-_3xDtJ" result="shape_4C83shLJth-eIU-_3xDtJ"/></filter><filter id="filter_yWXBQGgDsgctWURhRxJ8d" x="96.42363739013672" y="38.9384765625" width="79.1490478515625" height="123.30984497070312" filterUnits="userSpaceOnUse" color-interpolation-filters="sRGB"><feFlood flood-opacity="0" result="feFloodId_yWXBQGgDsgctWURhRxJ8d"/><feColorMatrix in="SourceAlpha" type="matrix" values="0 0 0 0 0 0 0 0 0 0 0 0 0 0 0 0 0 0 127 0" result="hardAlpha_yWXBQGgDsgctWURhRxJ8d"/><feOffset dx="0" dy="2"/><feGaussianBlur stdDeviation="2"/><feComposite in2="hardAlpha_yWXBQGgDsgctWURhRxJ8d" operator="out"/><feColorMatrix type="matrix" values="0 0 0 0 1 0 0 0 0 1 0 0 0 0 1 0 0 0 0.3 0"/><feBlend mode="normal" in2="feFloodId_yWXBQGgDsgctWURhRxJ8d" result="dropShadow_1_yWXBQGgDsgctWURhRxJ8d"/><feBlend mode="normal" in="SourceGraphic" in2="dropShadow_1_yWXBQGgDsgctWURhRxJ8d" result="shape_yWXBQGgDsgctWURhRxJ8d"/></filter></defs></svg>